<svg width="50" height="50" viewBox="0 0 50 50" fill="none" xmlns="http://www.w3.org/2000/svg">
<path fill-rule="evenodd" clip-rule="evenodd" d="M25 0C35.3553 0 43.75 8.39466 43.75 18.75H33.3333C33.3333 14.1476 29.6024 10.4167 25 10.4167C20.3976 10.4167 16.6667 14.1476 16.6667 18.75H6.25C6.25 8.39466 14.6447 0 25 0ZM29.1667 18.75C29.1667 16.4488 27.3012 14.5833 25 14.5833C22.6988 14.5833 20.8333 16.4488 20.8333 18.75H29.1667Z" fill="white"/>
<path d="M2.08337 22.9167H47.9167V48C47.9167 49.1046 47.0213 50 45.9167 50H4.08337C2.9788 50 2.08337 49.1046 2.08337 48V22.9167Z" fill="white"/>
</svg>
