<svg width="50" height="50" viewBox="0 0 50 50" fill="none" xmlns="http://www.w3.org/2000/svg">
<path d="M16.6667 22.9167C22.4196 22.9167 27.0833 18.253 27.0833 12.5C27.0833 6.74703 22.4196 2.08333 16.6667 2.08333C10.9137 2.08333 6.25 6.74703 6.25 12.5C6.25 18.253 10.9137 22.9167 16.6667 22.9167Z" fill="white"/>
<path d="M0 35.0833C0 30.6651 3.58172 27.0833 8 27.0833H25.3333C29.7516 27.0833 33.3333 30.6651 33.3333 35.0833V45.9167C33.3333 47.0212 32.4379 47.9167 31.3333 47.9167H2C0.895431 47.9167 0 47.0212 0 45.9167V35.0833Z" fill="white"/>
<path d="M35.4166 27.0833C38.8684 27.0833 41.6666 24.2851 41.6666 20.8333C41.6666 17.3815 38.8684 14.5833 35.4166 14.5833C31.9648 14.5833 29.1666 17.3815 29.1666 20.8333C29.1666 24.2851 31.9648 27.0833 35.4166 27.0833Z" fill="white"/>
<path d="M39.5834 20.8333V4.16667L45.8334 6.25" stroke="white" stroke-width="2" stroke-linecap="round" stroke-linejoin="round"/>
</svg>
