<svg width="16" height="16" viewBox="0 0 16 16" fill="none" xmlns="http://www.w3.org/2000/svg">
<path fill-rule="evenodd" clip-rule="evenodd" d="M7.19993 0C5.43263 0 3.99996 1.59188 3.99996 3.55556C3.99996 5.51924 5.43263 7.11111 7.19993 7.11111C8.96719 7.11111 10.3999 5.51924 10.3999 3.55556C10.3999 1.59188 8.96719 0 7.19993 0ZM9.5999 13.3333C9.5999 11.8605 10.6744 10.6667 11.9999 10.6667C12.2804 10.6667 12.5496 10.7202 12.7999 10.8184V7.11111C12.7999 6.80304 12.9435 6.51694 13.1793 6.35498C13.4151 6.19301 13.7096 6.17829 13.9576 6.31606L15.5576 7.20495C15.9528 7.4245 16.113 7.95843 15.9154 8.39752C15.7178 8.83661 15.2373 9.01458 14.8421 8.79505L14.3999 8.54936V13.3333C14.3999 14.8061 13.3254 16 11.9999 16C10.6744 16 9.5999 14.8061 9.5999 13.3333ZM0 13.3333C0 10.8788 1.79085 8.88889 3.99996 8.88889H8.42215C8.86399 8.88889 9.22215 9.28684 9.22215 9.77778C9.22215 10.2687 8.86399 10.6667 8.42215 10.6667H3.99996C2.67449 10.6667 1.59998 11.8605 1.59998 13.3333C1.59998 13.8243 1.95816 14.2222 2.39998 14.2222H7.47305C7.91488 14.2222 8.27304 14.6202 8.27304 15.1111C8.27304 15.602 7.91488 16 7.47305 16H2.39998C1.07451 16 0 14.8061 0 13.3333Z" fill="white"/>
</svg>
