<svg width="15" height="15" viewBox="0 0 15 15" fill="none" xmlns="http://www.w3.org/2000/svg">
<path fill-rule="evenodd" clip-rule="evenodd" d="M12.8047 0.862273C12.614 0.671606 12.3273 0.614572 12.0781 0.717759C11.829 0.820946 11.6666 1.06404 11.6666 1.33368V4.11415C11.4581 4.04045 11.2337 4.00035 10.9999 4.00035C9.89532 4.00035 8.99992 4.89577 8.99992 6.00035C8.99992 7.10493 9.89532 8.00033 10.9999 8.00033C12.1045 8.00033 12.9999 7.10493 12.9999 6.00035V2.94315L13.1952 3.13842C13.4555 3.39877 13.8777 3.39877 14.138 3.13842C14.3983 2.87807 14.3983 2.45596 14.138 2.19561L12.8047 0.862273ZM6.99992 2.66701C4.0544 2.66701 1.66659 5.05483 1.66659 8.00033C1.66659 10.9459 4.0544 13.3337 6.99992 13.3337C9.45905 13.3337 11.5311 11.6687 12.147 9.40339C12.2435 9.04806 12.6099 8.83839 12.9652 8.93499C13.3205 9.03159 13.5302 9.39786 13.4336 9.75319C12.6639 12.5843 10.076 14.667 6.99992 14.667C3.31802 14.667 0.333252 11.6823 0.333252 8.00033C0.333252 4.31845 3.31802 1.33368 6.99992 1.33368C7.86665 1.33368 8.69632 1.49943 9.45779 1.80158C9.79999 1.93738 9.96739 2.3249 9.83159 2.66713C9.69579 3.00937 9.30825 3.17671 8.96599 3.04091C8.35852 2.79984 7.69552 2.66701 6.99992 2.66701ZM6.99992 7.33366C6.63172 7.33366 6.33325 7.63213 6.33325 8.00033C6.33325 8.36853 6.63172 8.66699 6.99992 8.66699C7.36812 8.66699 7.66659 8.36853 7.66659 8.00033C7.66659 7.63213 7.36812 7.33366 6.99992 7.33366ZM4.99992 8.00033C4.99992 6.89579 5.89532 6.00035 6.99992 6.00035C8.10452 6.00035 8.99992 6.89579 8.99992 8.00033C8.99992 9.10493 8.10452 10.0003 6.99992 10.0003C5.89532 10.0003 4.99992 9.10493 4.99992 8.00033Z" fill="white"/>
</svg>
