<svg width="17" height="17" viewBox="0 0 17 17" fill="none" xmlns="http://www.w3.org/2000/svg">
<path fill-rule="evenodd" clip-rule="evenodd" d="M2.17662 0.313612C1.79754 -0.0880276 1.16464 -0.106314 0.762998 0.272769C0.361358 0.651852 0.343072 1.28475 0.722155 1.68639L1.33649 2.33728C-0.49887 4.46746 -0.443897 7.75154 1.50141 9.8126L6.24732 14.8409C7.29726 15.9533 9.02481 15.9533 10.0747 14.8409L11.6063 13.2182L14.1456 15.9086C14.5247 16.3103 15.1576 16.3285 15.5593 15.9495C15.9609 15.5704 15.9792 14.9375 15.6001 14.5358L12.3466 11.0887C12.3385 11.0798 12.3302 11.0711 12.3218 11.0624L3.48682 1.70177C3.47753 1.69152 3.46807 1.68149 3.45844 1.6717L2.17662 0.313612ZM8.16086 1.5124C10.1937 0.0275715 13.0152 0.241578 14.8207 2.15442C16.8225 4.27542 16.8225 7.6916 14.8207 9.8126L14.7066 9.93344C14.3275 10.3351 13.6946 10.3534 13.293 9.97429C12.8913 9.5952 12.873 8.9623 13.2521 8.56066L13.3662 8.43982C14.6407 7.08948 14.6407 4.87754 13.3662 3.5272C12.1227 2.20969 10.1318 2.20969 8.88827 3.5272C8.69934 3.72737 8.43627 3.84081 8.16103 3.84081C7.88579 3.84081 7.62272 3.72737 7.4338 3.5272C7.21467 3.29504 6.97472 3.10586 6.72258 2.95756C6.24653 2.67757 6.0876 2.06467 6.36759 1.58863C6.64758 1.11258 7.26048 0.953644 7.73652 1.23364C7.88151 1.31891 8.02314 1.41187 8.16086 1.5124Z" fill="white"/>
</svg>
