<svg width="42" height="42" viewBox="0 0 42 42" fill="none" xmlns="http://www.w3.org/2000/svg">
<path d="M24.7917 41.8334H17.2084C16.2294 41.8334 15.3824 41.1522 15.1729 40.1959L14.325 36.2709C13.1939 35.7753 12.1213 35.1556 11.1271 34.423L7.30003 35.6418C6.3667 35.9394 5.35209 35.5465 4.86253 34.698L1.06253 28.1334C0.578342 27.2845 0.745156 26.2136 1.46462 25.5522L4.43337 22.8438C4.29836 21.617 4.29836 20.379 4.43337 19.1522L1.46462 16.4501C0.744096 15.7883 0.577216 14.7162 1.06253 13.8667L4.8542 7.298C5.34376 6.44945 6.35837 6.05662 7.2917 6.35425L11.1188 7.573C11.6272 7.19624 12.1566 6.84847 12.7042 6.53133C13.2299 6.23486 13.7709 5.96643 14.325 5.72716L15.175 1.80633C15.3835 0.850016 16.2296 0.167778 17.2084 0.166748H24.7917C25.7705 0.167778 26.6166 0.850016 26.825 1.80633L27.6834 5.72925C28.2683 5.98657 28.838 6.27733 29.3896 6.60008C29.9048 6.89753 30.4028 7.22374 30.8813 7.57717L34.7104 6.35842C35.6432 6.06189 36.6565 6.45458 37.1459 7.30217L40.9375 13.8709C41.4217 14.7198 41.2549 15.7907 40.5354 16.4522L37.5667 19.1605C37.7017 20.3874 37.7017 21.6253 37.5667 22.8522L40.5354 25.5605C41.2549 26.2219 41.4217 27.2928 40.9375 28.1418L37.1459 34.7105C36.6565 35.5581 35.6432 35.9508 34.7104 35.6543L30.8813 34.4355C30.3968 34.7924 29.8932 35.1227 29.3729 35.4251C28.8268 35.7416 28.2634 36.0274 27.6854 36.2813L26.825 40.1959C26.6157 41.1514 25.7698 41.8326 24.7917 41.8334ZM20.9917 12.6667C16.3893 12.6667 12.6584 16.3977 12.6584 21.0001C12.6584 25.6025 16.3893 29.3334 20.9917 29.3334C25.5941 29.3334 29.325 25.6025 29.325 21.0001C29.325 16.3977 25.5941 12.6667 20.9917 12.6667Z" fill="white"/>
</svg>
