<svg width="27" height="28" viewBox="0 0 27 28" fill="none" xmlns="http://www.w3.org/2000/svg">
<path fill-rule="evenodd" clip-rule="evenodd" d="M0 13.9663C0 6.30454 5.89711 0 13.2838 0C20.6705 0 26.5676 6.30454 26.5676 13.9663C26.5676 21.628 20.6705 27.9325 13.2838 27.9325C5.89711 27.9325 0 21.628 0 13.9663ZM13.8386 9.05861C13.6847 8.89616 13.4868 8.81569 13.2825 8.81607C13.0792 8.81644 12.8824 8.89686 12.7291 9.05861C11.9695 9.86047 10.7378 9.86047 9.97817 9.0586C9.21851 8.25674 9.21851 6.95666 9.97817 6.15479C10.8885 5.19387 12.0849 4.71167 13.2756 4.70946C14.4718 4.70725 15.675 5.18941 16.5896 6.15479C17.502 7.11795 17.9588 8.38444 17.9588 9.64416C17.9588 10.9039 17.502 12.1703 16.5896 13.1335C16.1824 13.5633 15.7181 13.8973 15.2226 14.1354C15.1414 15.1871 14.3088 16.0157 13.2907 16.0195C12.2164 16.0235 11.3424 15.1075 11.3386 13.9735L11.3338 12.5328C11.332 11.9863 11.5366 11.4617 11.9023 11.0749C12.2681 10.6882 12.7648 10.4713 13.2825 10.4722C13.4868 10.4726 13.6847 10.3921 13.8386 10.2297C13.9922 10.0676 14.0684 9.85926 14.0684 9.64415C14.0684 9.42905 13.9922 9.2207 13.8386 9.05861ZM15.3313 19.729C15.3313 20.9226 14.4147 21.8901 13.284 21.8901C12.1533 21.8901 11.2367 20.9226 11.2367 19.729C11.2367 18.5355 12.1533 17.568 13.284 17.568C14.4147 17.568 15.3313 18.5355 15.3313 19.729Z" fill="white"/>
</svg>
