<svg width="50" height="50" viewBox="0 0 50 50" fill="none" xmlns="http://www.w3.org/2000/svg">
<path fill-rule="evenodd" clip-rule="evenodd" d="M2 16.6667C0.895431 16.6667 0 17.5621 0 18.6667V48C0 49.1046 0.895432 50 2 50H48C49.1046 50 50 49.1046 50 48V18.6667C50 17.5621 49.1046 16.6667 48 16.6667H2ZM19.7917 26.2586C19.7917 25.4908 20.6211 25.0094 21.2878 25.3903L32.8556 32.0005C33.5274 32.3844 33.5274 33.3531 32.8556 33.737L21.2878 40.3471C20.6212 40.7281 19.7917 40.2467 19.7917 39.4789V26.2586Z" fill="white"/>
<rect x="2.08337" y="8.33333" width="45.8333" height="4.16667" rx="1" fill="white"/>
<rect x="4.16663" width="41.6667" height="4.16667" rx="1" fill="white"/>
</svg>
