<svg width="192" height="192" viewBox="0 0 192 192" fill="none" xmlns="http://www.w3.org/2000/svg">
<rect width="192" height="192" rx="50" fill="url(#paint0_linear)"/>
<g filter="url(#filter0_d)">
<path d="M144.359 37.625C143.422 37.5208 142.745 37.1562 142.328 36.5312C142.016 35.8021 141.703 35.0729 141.391 34.3438C140.974 33.5104 140.87 32.7292 141.078 32C141.911 31.4792 142.745 31.1146 143.578 30.9062C144.516 30.5938 145.401 30.75 146.234 31.375C146.443 31.5833 146.703 31.8958 147.016 32.3125C147.328 32.625 147.536 32.9375 147.641 33.25C147.641 33.3542 147.589 33.6667 147.484 34.1875C147.38 34.6042 147.224 34.8646 147.016 34.9688C146.703 36.1146 145.974 36.7917 144.828 37L144.359 37.625ZM81.0781 31.8438C82.1198 31.7396 83.1094 31.7917 84.0469 32C84.9844 32.1042 85.8698 32.2604 86.7031 32.4688C88.5781 33.3021 90.0885 33.9792 91.2344 34.5C92.3802 34.9167 93.7344 35.3854 95.2969 35.9062C95.8177 35.6979 96.3906 35.4896 97.0156 35.2812C97.7448 35.0729 98.3177 34.7604 98.7344 34.3438C99.2552 34.2396 99.724 34.1875 100.141 34.1875C100.557 34.0833 100.922 34.1354 101.234 34.3438C101.651 34.1354 102.172 34.0833 102.797 34.1875C103.422 34.2917 103.995 34.2917 104.516 34.1875C105.974 33.9792 107.432 33.9271 108.891 34.0312C110.349 34.1354 111.651 34.3438 112.797 34.6562C113.943 34.8646 114.984 34.9167 115.922 34.8125C116.964 34.7083 118.005 34.6562 119.047 34.6562C119.88 34.6562 120.557 34.7083 121.078 34.8125C121.703 34.9167 122.328 34.9688 122.953 34.9688C123.266 34.8646 123.578 34.8125 123.891 34.8125C124.307 34.8125 124.672 34.7604 124.984 34.6562C126.13 34.2396 126.859 34.0312 127.172 34.0312C127.484 34.0312 127.693 33.9271 127.797 33.7188C128.526 33.5104 129.255 33.5104 129.984 33.7188C130.818 33.8229 131.651 33.9792 132.484 34.1875C133.005 34.8125 133.63 35.2292 134.359 35.4375C135.193 35.6458 135.87 36.0104 136.391 36.5312C137.328 37.5729 138.057 38.6146 138.578 39.6562C139.203 40.5938 139.62 41.8438 139.828 43.4062C140.036 43.7188 140.193 44.0833 140.297 44.5C140.401 44.8125 140.609 45.0729 140.922 45.2812C140.922 49.4479 139.88 52.2604 137.797 53.7188C137.797 54.1354 137.641 54.4479 137.328 54.6562C137.12 54.7604 137.016 55.0208 137.016 55.4375C136.599 55.2292 136.339 55.3333 136.234 55.75C136.13 56.1667 135.818 56.3229 135.297 56.2188C134.672 56.8438 133.839 57.2604 132.797 57.4688C131.859 57.5729 131.026 57.8854 130.297 58.4062C129.672 58.5104 128.839 58.6146 127.797 58.7188C126.755 58.7188 125.974 58.4583 125.453 57.9375C125.036 57.2083 124.568 56.6875 124.047 56.375C123.63 55.9583 123.318 55.3854 123.109 54.6562C122.589 54.3438 122.12 53.9271 121.703 53.4062C121.391 52.8854 120.818 52.625 119.984 52.625C119.776 52.4167 119.464 52.3125 119.047 52.3125C118.734 52.3125 118.474 52.2083 118.266 52C117.224 51.7917 116.286 51.6875 115.453 51.6875C114.62 51.5833 113.786 51.5312 112.953 51.5312C112.12 51.5312 111.286 51.4792 110.453 51.375C109.724 51.2708 109.047 51.0104 108.422 50.5938C108.005 50.8021 107.536 50.8542 107.016 50.75C106.599 50.6458 106.13 50.6458 105.609 50.75C104.984 50.8542 104.359 51.0625 103.734 51.375C103.214 51.5833 102.589 51.7917 101.859 52C101.339 52.2083 100.974 52.4167 100.766 52.625C100.661 52.8333 100.349 53.0938 99.8281 53.4062C98.8906 53.7188 98.3177 53.9792 98.1094 54.1875C98.0052 54.2917 97.7448 54.3958 97.3281 54.5C96.9115 54.7083 96.4948 55.0208 96.0781 55.4375C95.7656 55.75 95.349 55.9062 94.8281 55.9062C94.099 56.3229 93.4219 56.7917 92.7969 57.3125C92.276 57.7292 91.7031 58.1979 91.0781 58.7188C90.6615 59.1354 90.2969 59.4479 89.9844 59.6562C89.776 59.8646 89.5156 60.0729 89.2031 60.2812C88.9948 60.9062 88.7865 61.4792 88.5781 62C88.3698 62.4167 88.2135 63.0417 88.1094 63.875C87.7969 64.8125 87.6927 65.3333 87.7969 65.4375C87.901 65.5417 87.9531 65.6979 87.9531 65.9062C87.849 66.4271 87.7448 66.8958 87.6406 67.3125C87.5365 67.625 87.4844 68.0417 87.4844 68.5625C87.7969 69.7083 87.901 70.3333 87.7969 70.4375C87.6927 70.4375 87.6406 70.5417 87.6406 70.75C87.6406 71.7917 87.6927 72.8854 87.7969 74.0312C88.0052 75.1771 87.9531 76.3229 87.6406 77.4688C87.7448 78.0938 87.849 78.7188 87.9531 79.3438C88.1615 79.8646 88.526 80.2812 89.0469 80.5938C90.8177 80.9062 92.4323 81.0104 93.8906 80.9062C95.4531 80.6979 96.9635 80.4896 98.4219 80.2812C99.2552 80.5938 100.193 80.6458 101.234 80.4375C102.276 80.125 103.214 79.8646 104.047 79.6562C104.984 79.3438 105.557 79.1354 105.766 79.0312C105.974 78.8229 106.234 78.8229 106.547 79.0312C107.172 78.7188 107.849 78.4583 108.578 78.25C109.307 77.9375 109.984 77.6771 110.609 77.4688C111.026 77.2604 111.391 77.1042 111.703 77C112.016 76.8958 112.432 76.8438 112.953 76.8438C113.995 77.2604 114.568 77.4688 114.672 77.4688C114.88 77.3646 115.089 77.3125 115.297 77.3125C116.547 78.25 117.432 78.7708 117.953 78.875C118.474 78.9792 118.891 79.2396 119.203 79.6562C119.724 80.3854 119.984 81.1146 119.984 81.8438C119.984 82.5729 120.036 83.3021 120.141 84.0312C120.245 84.7604 120.401 85.4375 120.609 86.0625C120.818 86.5833 120.453 87.0521 119.516 87.4688C118.578 89.1354 117.693 90.2292 116.859 90.75C116.026 91.1667 115.297 91.6354 114.672 92.1562C114.359 92.3646 114.099 92.625 113.891 92.9375C113.682 93.1458 113.422 93.3542 113.109 93.5625C113.005 94.1875 112.589 94.6562 111.859 94.9688C111.443 96.0104 110.766 96.6875 109.828 97C109.099 98.0417 108.057 98.6146 106.703 98.7188C105.453 98.7188 104.099 98.8229 102.641 99.0312C102.224 98.9271 101.547 98.9271 100.609 99.0312C99.776 99.1354 99.2031 98.9792 98.8906 98.5625C98.0573 98.4583 97.224 98.3021 96.3906 98.0938C95.5573 97.8854 94.8281 97.4167 94.2031 96.6875C93.1615 96.375 92.0677 96.1667 90.9219 96.0625C89.8802 95.9583 88.8906 96.1146 87.9531 96.5312C86.599 97.2604 85.8698 97.9896 85.7656 98.7188C85.7656 99.1354 85.8698 99.4479 86.0781 99.6562C86.3906 99.8646 86.651 100.177 86.8594 100.594C87.276 101.115 87.5365 101.896 87.6406 102.938C87.849 103.875 87.901 104.604 87.7969 105.125C88.2135 105.542 88.3177 106.167 88.1094 107C88.0052 107.833 88.0052 108.615 88.1094 109.344C88.0052 110.594 88.0052 111.74 88.1094 112.781C88.3177 113.719 88.526 114.604 88.7344 115.438C88.526 115.958 88.4219 116.635 88.4219 117.469C88.526 118.198 88.474 118.823 88.2656 119.344C88.5781 119.969 88.6302 120.646 88.4219 121.375C88.3177 122.104 88.2135 122.781 88.1094 123.406C87.901 124.656 87.849 125.906 87.9531 127.156C88.1615 128.302 88.4219 129.5 88.7344 130.75C89.3594 131.688 89.6719 132.677 89.6719 133.719C89.6719 134.76 89.5156 135.854 89.2031 137C88.8906 138.042 88.526 139.135 88.1094 140.281C87.6927 141.323 87.4323 142.365 87.3281 143.406C87.4323 144.031 87.3802 144.812 87.1719 145.75C86.9635 146.688 86.7031 147.417 86.3906 147.938C85.5573 148.771 85.1406 149.448 85.1406 149.969C84.3073 150.802 83.474 151.219 82.6406 151.219C81.0781 151.01 80.0365 151.115 79.5156 151.531C78.9948 151.844 78.474 151.948 77.9531 151.844C77.224 151.531 76.7031 151.427 76.3906 151.531C76.0781 151.635 75.8177 151.688 75.6094 151.688C75.0885 151.688 74.6719 151.583 74.3594 151.375C74.0469 151.167 73.6302 150.958 73.1094 150.75C72.5885 149.917 72.0156 149.135 71.3906 148.406C70.8698 147.573 70.5052 146.635 70.2969 145.594C70.0885 145.281 69.8802 144.969 69.6719 144.656C69.5677 144.344 69.4115 144.083 69.2031 143.875C69.099 143.354 68.9427 142.833 68.7344 142.312C68.6302 141.688 68.5781 141.115 68.5781 140.594C68.1615 140.073 67.901 139.448 67.7969 138.719C67.7969 137.99 67.5365 137.365 67.0156 136.844C66.599 135.906 66.3385 134.969 66.2344 134.031C66.2344 132.99 66.3385 132.052 66.5469 131.219C67.0677 129.76 67.4844 128.562 67.7969 127.625C68.2135 126.583 68.5781 125.49 68.8906 124.344C69.5156 121.948 70.401 120.073 71.5469 118.719C71.651 118.198 71.8594 117.625 72.1719 117C72.4844 116.375 72.7448 115.75 72.9531 115.125C72.9531 114.5 72.9531 114.031 72.9531 113.719C73.0573 113.302 73.0573 112.885 72.9531 112.469C73.2656 111.844 73.4219 111.115 73.4219 110.281C73.4219 109.448 73.3698 108.562 73.2656 107.625C73.1615 106.688 73.1094 105.802 73.1094 104.969C73.1094 104.031 73.2656 103.198 73.5781 102.469C73.5781 101.323 73.526 100.125 73.4219 98.875C73.3177 97.5208 73.2656 96.2188 73.2656 94.9688C72.9531 94.6562 72.7969 94.2917 72.7969 93.875C72.901 93.3542 72.901 92.9375 72.7969 92.625C71.9635 92.9375 71.026 92.8854 69.9844 92.4688C69.0469 91.9479 67.9531 91.7917 66.7031 92C66.2865 91.7917 65.974 91.5312 65.7656 91.2188C65.5573 90.8021 65.2969 90.4896 64.9844 90.2812C64.9844 89.8646 64.8802 89.5521 64.6719 89.3438C64.5677 89.1354 64.6198 88.8229 64.8281 88.4062C64.5156 88.1979 64.3594 87.9896 64.3594 87.7812C64.4635 87.4688 64.4115 87.0521 64.2031 86.5312C63.9948 85.9062 63.8385 85.4896 63.7344 85.2812C63.6302 84.9688 63.526 84.7083 63.4219 84.5C63.2135 83.5625 63.4219 82.9375 64.0469 82.625C63.9427 81.7917 64.099 81.2708 64.5156 81.0625C65.0365 80.8542 65.5573 80.5938 66.0781 80.2812C67.224 79.7604 68.0573 79.5521 68.5781 79.6562C69.099 79.7604 69.4635 79.5521 69.6719 79.0312C69.9844 79.2396 70.2448 79.2917 70.4531 79.1875C70.6615 78.9792 70.974 78.875 71.3906 78.875C72.0156 78.0417 72.224 77.0521 72.0156 75.9062C71.8073 74.7604 71.8073 73.7708 72.0156 72.9375C71.8073 72.2083 71.651 71.5833 71.5469 71.0625C71.5469 70.5417 71.651 70.0729 71.8594 69.6562C71.8594 68.0938 71.8594 67 71.8594 66.375C71.9635 65.6458 72.1198 64.8646 72.3281 64.0312C72.5365 62.9896 72.6406 62.4167 72.6406 62.3125C72.5365 61.7917 72.4844 61.3229 72.4844 60.9062C72.5885 60.4896 72.5365 60.0729 72.3281 59.6562C72.224 59.0312 72.224 58.4062 72.3281 57.7812C72.4323 57.1562 72.3281 56.7396 72.0156 56.5312C72.224 55.6979 72.1198 55.0208 71.7031 54.5C71.2865 53.9792 70.974 53.4583 70.7656 52.9375C70.5573 52.625 70.2969 52.3125 69.9844 52C69.6719 51.6875 69.5677 51.3229 69.6719 50.9062C69.151 50.2812 68.5781 49.5521 67.9531 48.7188C67.4323 47.8854 67.276 47 67.4844 46.0625C67.0677 44.6042 66.7552 43.4062 66.5469 42.4688C66.3385 41.4271 66.2865 40.5417 66.3906 39.8125C66.4948 39.0833 66.8073 38.4583 67.3281 37.9375C67.849 37.4167 68.2135 36.8958 68.4219 36.375C69.3594 35.5417 69.9323 34.8646 70.1406 34.3438C70.4531 33.8229 70.8698 33.3542 71.3906 32.9375C72.4323 32.8333 73.0052 32.7812 73.1094 32.7812C73.6302 32.7812 73.9948 32.7292 74.2031 32.625C74.5156 32.4167 74.776 32.2604 74.9844 32.1562L77.3281 31.8438C78.1615 31.4271 78.7865 31.2708 79.2031 31.375C79.724 31.4792 80.2969 31.4792 80.9219 31.375L81.0781 31.8438ZM62.1719 60.125C61.8594 60.125 61.4948 59.9688 61.0781 59.6562C60.7656 59.3438 60.6615 59.0833 60.7656 58.875C60.2448 58.5625 59.8802 58.0938 59.6719 57.4688C59.5677 56.7396 59.5677 56.0625 59.6719 55.4375C59.776 54.7083 60.0365 54.0833 60.4531 53.5625C60.8698 52.9375 61.3385 52.5208 61.8594 52.3125C63.4219 51.4792 64.5677 51.5312 65.2969 52.4688C66.1302 53.4062 66.5469 54.3958 66.5469 55.4375C66.651 56.7917 66.2865 57.9375 65.4531 58.875C64.6198 59.8125 63.526 60.2292 62.1719 60.125ZM97.7969 61.6875C97.901 62.2083 98.0573 62.625 98.2656 62.9375C98.474 63.1458 98.6302 63.4062 98.7344 63.7188C98.526 63.9271 98.3698 64.2396 98.2656 64.6562C98.2656 65.0729 98.1615 65.4896 97.9531 65.9062C97.0156 66.4271 96.4427 66.8958 96.2344 67.3125C96.026 67.625 95.7656 67.8854 95.4531 68.0938C95.2448 68.3021 94.9323 68.4062 94.5156 68.4062C94.2031 68.4062 93.8385 68.1458 93.4219 67.625C93.3177 67.1042 93.2656 66.6354 93.2656 66.2188C93.2656 65.6979 93.2656 65.1771 93.2656 64.6562C93.474 63.8229 93.9948 62.9896 94.8281 62.1562C95.6615 61.3229 96.651 61.1667 97.7969 61.6875ZM93.4219 75.75C92.7969 75.0208 92.4844 74.3958 92.4844 73.875C92.4844 73.3542 92.6927 73.1458 93.1094 73.25C93.2135 72.7292 93.526 72.3646 94.0469 72.1562C94.5677 71.8438 95.0885 71.7396 95.6094 71.8438C96.4427 72.0521 96.8594 72.5208 96.8594 73.25C96.8594 73.875 96.5469 74.4479 95.9219 74.9688C95.0885 75.3854 94.5677 75.6458 94.3594 75.75C94.2552 75.8542 93.9427 75.8542 93.4219 75.75ZM122.953 101.219C122.432 101.74 121.911 102.104 121.391 102.312C120.974 102.417 120.505 102.625 119.984 102.938C119.776 102.625 119.516 102.417 119.203 102.312C118.995 102.208 118.734 101.948 118.422 101.531C118.214 101.323 118.057 101.062 117.953 100.75C117.849 100.438 117.693 100.177 117.484 99.9688C116.964 99.2396 116.755 98.7188 116.859 98.4062C116.964 97.9896 117.068 97.6771 117.172 97.4688C117.797 96.5312 118.214 96.0104 118.422 95.9062C119.047 95.2812 119.359 94.9167 119.359 94.8125C119.464 94.6042 119.568 94.4479 119.672 94.3438C121.234 93.5104 122.536 93.1458 123.578 93.25C124.62 93.25 125.297 93.6667 125.609 94.5C125.818 96.0625 125.557 97.3125 124.828 98.25C124.099 99.1875 123.474 100.177 122.953 101.219ZM95.7656 141.062C95.7656 141.896 95.6094 142.729 95.2969 143.562C95.0885 144.292 94.724 144.812 94.2031 145.125C93.7865 145.333 93.4219 145.594 93.1094 145.906C92.901 146.115 92.6406 146.219 92.3281 146.219C91.4948 146.115 90.9219 145.542 90.6094 144.5C90.401 143.458 90.5573 142.677 91.0781 142.156C90.974 141.531 91.0781 141.167 91.3906 141.062C91.7031 140.854 91.9115 140.542 92.0156 140.125C93.5781 139.604 94.5156 139.5 94.8281 139.812C95.2448 140.125 95.5573 140.542 95.7656 141.062Z" fill="white"/>
</g>
<defs>
<filter id="filter0_d" x="55.5938" y="30.75" width="96.0469" height="129.133" filterUnits="userSpaceOnUse" color-interpolation-filters="sRGB">
<feFlood flood-opacity="0" result="BackgroundImageFix"/>
<feColorMatrix in="SourceAlpha" type="matrix" values="0 0 0 0 0 0 0 0 0 0 0 0 0 0 0 0 0 0 127 0"/>
<feOffset dy="4"/>
<feGaussianBlur stdDeviation="2"/>
<feColorMatrix type="matrix" values="0 0 0 0 0 0 0 0 0 0 0 0 0 0 0 0 0 0 0.5 0"/>
<feBlend mode="normal" in2="BackgroundImageFix" result="effect1_dropShadow"/>
<feBlend mode="normal" in="SourceGraphic" in2="effect1_dropShadow" result="shape"/>
</filter>
<linearGradient id="paint0_linear" x1="-2.44656e-06" y1="95.7493" x2="192" y2="95.7493" gradientUnits="userSpaceOnUse">
<stop stop-color="#23049D" stop-opacity="0.8"/>
<stop offset="0.510417" stop-color="#AA2EE6"/>
<stop offset="1" stop-color="#FF79CD"/>
</linearGradient>
</defs>
</svg>
