<svg width="17" height="17" viewBox="0 0 17 17" fill="none" xmlns="http://www.w3.org/2000/svg">
<path fill-rule="evenodd" clip-rule="evenodd" d="M16.3999 4.21896C16.4001 4.20726 16.4001 4.19553 16.3999 4.18377V1.01895C16.4005 0.98556 16.3994 0.951878 16.3966 0.918003C16.387 0.800361 16.3571 0.688476 16.3103 0.58588C16.2485 0.449841 16.1578 0.331671 16.0471 0.237791C15.9344 0.142072 15.8003 0.070871 15.6529 0.0324444C15.5459 0.00438767 15.4327 -0.00616955 15.3174 0.00351181C15.2834 0.00628866 15.2499 0.010766 15.2169 0.0168588L5.65178 1.61106C5.55874 1.62488 5.46988 1.65152 5.38706 1.68911C5.11165 1.81372 4.90927 2.05687 4.83303 2.34418C4.80983 2.43159 4.79831 2.52309 4.79996 2.61659V5.78134C4.79976 5.79305 4.79975 5.80481 4.79996 5.81659V9.90087C4.37302 9.70771 3.89906 9.60017 3.39998 9.60017C1.52221 9.60017 0 11.1224 0 13.0002C0 14.8779 1.52221 16.4002 3.39998 16.4002C5.27775 16.4002 6.79996 14.8779 6.79996 13.0002V12.9984V6.64729L14.3999 5.38062V8.30086C13.9729 8.1077 13.499 8.00017 12.9999 8.00017C11.1221 8.00017 9.59993 9.52242 9.59993 11.4002C9.59993 13.2779 11.1221 14.8002 12.9999 14.8002C14.8769 14.8002 16.3986 13.2792 16.3999 11.4025C16.3999 11.4017 16.3999 11.401 16.3999 11.4002L16.3999 4.21896Z" fill="white"/>
</svg>
