<svg width="50" height="50" viewBox="0 0 50 50" fill="none" xmlns="http://www.w3.org/2000/svg">
<path d="M46.5599 11.6728C47.1865 11.2811 47.1865 10.3684 46.5599 9.97677L32.78 1.36436C32.114 0.948076 31.25 1.42692 31.25 2.21235V19.4372C31.25 20.2226 32.114 20.7015 32.78 20.2852L46.5599 11.6728Z" fill="white"/>
<path d="M3.67621 38.7561C3.04954 38.3644 3.04954 37.4518 3.67621 37.0601L17.4561 28.4477C18.1221 28.0314 18.9861 28.5102 18.9861 29.2957V46.5205C18.9861 47.3059 18.1221 47.7848 17.4561 47.3685L3.67621 38.7561Z" fill="white"/>
<path d="M8.33337 22.9167V22.9167C8.33337 16.0131 13.9298 10.4167 20.8334 10.4167V10.4167H31.25" stroke="white" stroke-width="5" stroke-linecap="round" stroke-linejoin="round"/>
<path d="M39.5834 25V25C39.5834 31.9036 33.9869 37.5 27.0834 37.5V37.5H16.6667" stroke="white" stroke-width="5" stroke-linecap="round" stroke-linejoin="round"/>
</svg>
