<svg width="24" height="24" viewBox="0 0 24 24" fill="none" xmlns="http://www.w3.org/2000/svg">
<path d="M13.82 22H10.18C9.71016 22 9.3036 21.673 9.20304 21.214L8.79604 19.33C8.25309 19.0921 7.73827 18.7946 7.26104 18.443L5.42404 19.028C4.97604 19.1709 4.48903 18.9823 4.25404 18.575L2.43004 15.424C2.19763 15.0165 2.2777 14.5025 2.62304 14.185L4.04804 12.885C3.98324 12.2961 3.98324 11.7019 4.04804 11.113L2.62304 9.816C2.27719 9.49837 2.19709 8.98372 2.43004 8.576L4.25004 5.423C4.48503 5.0157 4.97204 4.82714 5.42004 4.97L7.25704 5.555C7.5011 5.37416 7.75517 5.20722 8.01804 5.055C8.27038 4.91269 8.53008 4.78385 8.79604 4.669L9.20404 2.787C9.30411 2.32797 9.71023 2.00049 10.18 2H13.82C14.2899 2.00049 14.696 2.32797 14.796 2.787L15.208 4.67C15.4888 4.79352 15.7623 4.93308 16.027 5.088C16.2743 5.23078 16.5134 5.38736 16.743 5.557L18.581 4.972C19.0287 4.82967 19.5152 5.01816 19.75 5.425L21.57 8.578C21.8025 8.98548 21.7224 9.49951 21.377 9.817L19.952 11.117C20.0168 11.7059 20.0168 12.3001 19.952 12.889L21.377 14.189C21.7224 14.5065 21.8025 15.0205 21.57 15.428L19.75 18.581C19.5152 18.9878 19.0287 19.1763 18.581 19.034L16.743 18.449C16.5105 18.6203 16.2688 18.7789 16.019 18.924C15.7569 19.0759 15.4864 19.2131 15.209 19.335L14.796 21.214C14.6956 21.6726 14.2896 21.9996 13.82 22ZM11.996 8C9.7869 8 7.99604 9.79086 7.99604 12C7.99604 14.2091 9.7869 16 11.996 16C14.2052 16 15.996 14.2091 15.996 12C15.996 9.79086 14.2052 8 11.996 8Z" fill="white"/>
</svg>
