<svg width="50" height="50" viewBox="0 0 50 50" fill="none" xmlns="http://www.w3.org/2000/svg">
<path d="M6.25 33.3333H10.4167V45.9167C10.4167 47.0212 9.52124 47.9167 8.41667 47.9167H8.25C7.14543 47.9167 6.25 47.0212 6.25 45.9167V33.3333Z" fill="white"/>
<path d="M22.9166 27.0833H27.0833V45.9167C27.0833 47.0212 26.1879 47.9167 25.0833 47.9167H24.9166C23.8121 47.9167 22.9166 47.0212 22.9166 45.9167V27.0833Z" fill="white"/>
<path d="M6.25 4.08335C6.25 2.97878 7.14543 2.08334 8.25 2.08334H8.41667C9.52123 2.08334 10.4167 2.97877 10.4167 4.08334V22.9167H6.25V4.08335Z" fill="white"/>
<path d="M39.5834 33.3333H43.75V45.9167C43.75 47.0212 42.8546 47.9167 41.75 47.9167H41.5834C40.4788 47.9167 39.5834 47.0212 39.5834 45.9167V33.3333Z" fill="white"/>
<path d="M39.5834 4.08335C39.5834 2.97878 40.4788 2.08334 41.5834 2.08334H41.75C42.8546 2.08334 43.75 2.97877 43.75 4.08334V22.9167H39.5834V4.08335Z" fill="white"/>
<path d="M22.9166 4.08334C22.9166 2.97877 23.8121 2.08334 24.9166 2.08334H25.0833C26.1879 2.08334 27.0833 2.97877 27.0833 4.08334V16.6667H22.9166V4.08334Z" fill="white"/>
<rect x="33.3334" y="27.0833" width="16.6667" height="10.4167" rx="2" fill="white"/>
<rect x="16.6666" y="12.5" width="16.6667" height="10.4167" rx="2" fill="white"/>
<rect y="27.0833" width="16.6667" height="10.4167" rx="2" fill="white"/>
</svg>
